<?xml version="1.0" encoding="UTF-8" standalone="no"?>
<!DOCTYPE svg PUBLIC "-//W3C//DTD SVG 1.1//EN"
 "http://www.w3.org/Graphics/SVG/1.1/DTD/svg11.dtd">
<!-- Generated by graphviz version 2.26.3 (20100126.1600)
 -->
<!-- Title: level_map Pages: 1 -->
<svg width="1643pt" height="2241pt"
 viewBox="0.00 0.00 1643.00 2241.00" xmlns="http://www.w3.org/2000/svg" xmlns:xlink="http://www.w3.org/1999/xlink">
<g id="graph1" class="graph" transform="scale(1 1) rotate(0) translate(4 2237)">
<title>level_map</title>
<polygon fill="white" stroke="white" points="-4,5 -4,-2237 1640,-2237 1640,5 -4,5"/>
<text text-anchor="middle" x="817.5" y="-63.4" font-family="Times Roman,serif" font-size="14.00">Item and room map for the Terminus game.</text>
<text text-anchor="middle" x="817.5" y="-45.4" font-family="Times Roman,serif" font-size="14.00">Labeled arrows represent tasks that need to be completed before advancing to the next room.</text>
<text text-anchor="middle" x="817.5" y="-27.4" font-family="Times Roman,serif" font-size="14.00">Dotted arrows are rooms that are connected but that you cannot move into.</text>
<text text-anchor="middle" x="817.5" y="-9.4" font-family="Times Roman,serif" font-size="14.00">Dashed lines mean originally hidden until a task is completed.</text>
<g id="graph2" class="cluster"><title>cluster_level1</title>
<polygon fill="none" stroke="black" points="370,-1204 370,-2225 856,-2225 856,-1204 370,-1204"/>
<text text-anchor="middle" x="613" y="-2208.4" font-family="Times Roman,serif" font-size="14.00">Level 1</text>
</g>
<g id="graph3" class="cluster"><title>cluster_level2</title>
<polygon fill="none" stroke="black" points="8,-136 8,-1184 1158,-1184 1158,-136 8,-136"/>
<text text-anchor="middle" x="583" y="-1167.4" font-family="Times Roman,serif" font-size="14.00">Level 2</text>
</g>
<g id="graph4" class="cluster"><title>cluster_mit</title>
<polygon fill="none" stroke="black" points="883,-1866 883,-2107 1479,-2107 1479,-1866 883,-1866"/>
<text text-anchor="middle" x="1181" y="-2090.4" font-family="Times Roman,serif" font-size="14.00">MIT community</text>
</g>
<!-- Home -->
<g id="node1" class="node"><title>Home</title>
<polygon fill="none" stroke="black" points="845,-2190.5 687,-2190.5 687,-2135.5 845,-2135.5 845,-2190.5"/>
<polygon fill="white" stroke="white" points="695,-2139.5 695,-2186.5 837,-2186.5 837,-2139.5 695,-2139.5"/>
<polygon fill="black" stroke="black" points="697,-2163 697,-2184 835,-2184 835,-2163 697,-2163"/>
<text text-anchor="start" x="746" y="-2170.23" font-family="Times Roman,serif" font-size="14.00" fill="white">Home</text>
<text text-anchor="start" x="700" y="-2147.73" font-family="Times Roman,serif" font-size="14.00">WelcomeLetter</text>
</g>
<!-- WesternForest -->
<g id="node2" class="node"><title>WesternForest</title>
<polygon fill="none" stroke="black" points="600,-2083.5 454,-2083.5 454,-2006.5 600,-2006.5 600,-2083.5"/>
<polygon fill="white" stroke="white" points="461.5,-2010.5 461.5,-2079.5 592.5,-2079.5 592.5,-2010.5 461.5,-2010.5"/>
<polygon fill="black" stroke="black" points="464,-2056 464,-2077 591,-2077 591,-2056 464,-2056"/>
<text text-anchor="start" x="476.5" y="-2063.23" font-family="Times Roman,serif" font-size="14.00" fill="white">WesternForest</text>
<text text-anchor="start" x="467" y="-2040.73" font-family="Times Roman,serif" font-size="14.00">Sign</text>
<text text-anchor="start" x="467" y="-2018.73" font-family="Times Roman,serif" font-size="14.00">BackSign</text>
</g>
<!-- Home&#45;&gt;WesternForest -->
<g id="edge3" class="edge"><title>Home&#45;&gt;WesternForest</title>
<path fill="none" stroke="black" d="M710.267,-2135.48C680.259,-2120.67 642.666,-2102.11 609.35,-2085.66"/>
<polygon fill="black" stroke="black" points="610.593,-2082.37 600.076,-2081.08 607.494,-2088.65 610.593,-2082.37"/>
</g>
<!-- NorthernMeadow -->
<g id="node3" class="node"><title>NorthernMeadow</title>
<polygon fill="none" stroke="black" points="826,-2072.5 676,-2072.5 676,-2017.5 826,-2017.5 826,-2072.5"/>
<polygon fill="white" stroke="white" points="683.5,-2021.5 683.5,-2068.5 818.5,-2068.5 818.5,-2021.5 683.5,-2021.5"/>
<polygon fill="black" stroke="black" points="686,-2045 686,-2066 817,-2066 817,-2045 686,-2045"/>
<text text-anchor="start" x="691" y="-2052.23" font-family="Times Roman,serif" font-size="14.00" fill="white">NorthernMeadow</text>
<text text-anchor="start" x="689" y="-2029.73" font-family="Times Roman,serif" font-size="14.00">Pony</text>
</g>
<!-- Home&#45;&gt;NorthernMeadow -->
<g id="edge5" class="edge"><title>Home&#45;&gt;NorthernMeadow</title>
<path fill="none" stroke="black" d="M762.483,-2135.33C760.504,-2119.76 758.003,-2100.09 755.841,-2083.09"/>
<polygon fill="black" stroke="black" points="759.28,-2082.38 754.547,-2072.9 752.336,-2083.26 759.28,-2082.38"/>
</g>
<!-- MIT -->
<g id="node28" class="node"><title>MIT</title>
<polygon fill="none" stroke="black" points="1162,-2072.5 998,-2072.5 998,-2017.5 1162,-2017.5 1162,-2072.5"/>
<polygon fill="white" stroke="white" points="1006,-2021.5 1006,-2068.5 1154,-2068.5 1154,-2021.5 1006,-2021.5"/>
<polygon fill="black" stroke="black" points="1008,-2045 1008,-2066 1152,-2066 1152,-2045 1008,-2045"/>
<text text-anchor="start" x="1067" y="-2052.23" font-family="Times Roman,serif" font-size="14.00" fill="white">MIT</text>
<text text-anchor="start" x="1011" y="-2029.73" font-family="Times Roman,serif" font-size="14.00">AdmissionsLetter</text>
</g>
<!-- Home&#45;&gt;MIT -->
<g id="edge67" class="edge"><title>Home&#45;&gt;MIT</title>
<path fill="none" stroke="black" d="M839.223,-2135.48C886.453,-2117.73 947.989,-2094.61 997.028,-2076.18"/>
<polygon fill="black" stroke="black" points="998.532,-2079.35 1006.66,-2072.56 996.069,-2072.8 998.532,-2079.35"/>
</g>
<!-- MagicLocker -->
<g id="node32" class="node"><title>MagicLocker</title>
<polygon fill="none" stroke="black" points="1635,-2072.5 1487,-2072.5 1487,-2017.5 1635,-2017.5 1635,-2072.5"/>
<polygon fill="white" stroke="white" points="1495,-2021.5 1495,-2068.5 1627,-2068.5 1627,-2021.5 1495,-2021.5"/>
<polygon fill="black" stroke="black" points="1497,-2045 1497,-2066 1625,-2066 1625,-2045 1497,-2045"/>
<text text-anchor="start" x="1518.5" y="-2052.23" font-family="Times Roman,serif" font-size="14.00" fill="white">MagicLocker</text>
<text text-anchor="start" x="1500" y="-2029.73" font-family="Times Roman,serif" font-size="14.00">Inscription</text>
</g>
<!-- Home&#45;&gt;MagicLocker -->
<g id="edge75" class="edge"><title>Home&#45;&gt;MagicLocker</title>
<path fill="none" stroke="black" d="M845.252,-2159.43C1019.45,-2151.2 1424.87,-2129.87 1483,-2107 1498.86,-2100.76 1514.07,-2090.14 1526.78,-2079.43"/>
<polygon fill="black" stroke="black" points="1529.14,-2082.01 1534.35,-2072.79 1524.53,-2076.75 1529.14,-2082.01"/>
</g>
<!-- SpellCastingAcademy -->
<g id="node4" class="node"><title>SpellCastingAcademy</title>
<polygon fill="none" stroke="black" points="605,-1940.5 383,-1940.5 383,-1885.5 605,-1885.5 605,-1940.5"/>
<polygon fill="white" stroke="white" points="390.5,-1889.5 390.5,-1936.5 597.5,-1936.5 597.5,-1889.5 390.5,-1889.5"/>
<polygon fill="black" stroke="black" points="393,-1913 393,-1934 596,-1934 596,-1913 393,-1913"/>
<text text-anchor="start" x="420.5" y="-1920.23" font-family="Times Roman,serif" font-size="14.00" fill="white">SpellCastingAcademy</text>
<text text-anchor="start" x="396" y="-1897.73" font-family="Times Roman,serif" font-size="14.00">HurryingStudent</text>
</g>
<!-- WesternForest&#45;&gt;SpellCastingAcademy -->
<g id="edge7" class="edge"><title>WesternForest&#45;&gt;SpellCastingAcademy</title>
<path fill="none" stroke="black" d="M517.366,-2006.47C512.977,-1988.91 507.799,-1968.2 503.434,-1950.74"/>
<polygon fill="black" stroke="black" points="506.791,-1949.73 500.97,-1940.88 500,-1951.43 506.791,-1949.73"/>
</g>
<!-- EasternMountains -->
<g id="node7" class="node"><title>EasternMountains</title>
<polygon fill="none" stroke="black" points="848,-1951.5 648,-1951.5 648,-1874.5 848,-1874.5 848,-1951.5"/>
<polygon fill="white" stroke="white" points="655.5,-1878.5 655.5,-1947.5 840.5,-1947.5 840.5,-1878.5 655.5,-1878.5"/>
<polygon fill="black" stroke="black" points="658,-1924 658,-1945 839,-1945 839,-1924 658,-1924"/>
<text text-anchor="start" x="685.5" y="-1931.23" font-family="Times Roman,serif" font-size="14.00" fill="white">EasternMountains</text>
<text text-anchor="start" x="661" y="-1908.73" font-family="Times Roman,serif" font-size="14.00">OldMan</text>
<text text-anchor="start" x="661" y="-1886.73" font-family="Times Roman,serif" font-size="14.00">OldManuscripts</text>
</g>
<!-- NorthernMeadow&#45;&gt;EasternMountains -->
<g id="edge15" class="edge"><title>NorthernMeadow&#45;&gt;EasternMountains</title>
<path fill="none" stroke="black" d="M750.371,-2017.33C750.006,-2001.25 749.535,-1980.54 749.109,-1961.81"/>
<polygon fill="black" stroke="black" points="752.605,-1961.57 748.878,-1951.65 745.607,-1961.73 752.605,-1961.57"/>
</g>
<!-- Lessons -->
<g id="node5" class="node"><title>Lessons</title>
<polygon fill="none" stroke="black" points="502,-1780.5 378,-1780.5 378,-1725.5 502,-1725.5 502,-1780.5"/>
<polygon fill="white" stroke="white" points="386,-1729.5 386,-1776.5 494,-1776.5 494,-1729.5 386,-1729.5"/>
<polygon fill="black" stroke="black" points="388,-1753 388,-1774 492,-1774 492,-1753 388,-1753"/>
<text text-anchor="start" x="412.5" y="-1760.23" font-family="Times Roman,serif" font-size="14.00" fill="white">Lessons</text>
<text text-anchor="start" x="391" y="-1737.73" font-family="Times Roman,serif" font-size="14.00">Professor</text>
</g>
<!-- SpellCastingAcademy&#45;&gt;Lessons -->
<g id="edge11" class="edge"><title>SpellCastingAcademy&#45;&gt;Lessons</title>
<path fill="none" stroke="black" d="M484.717,-1885.5C475.869,-1859.28 462.477,-1819.6 452.655,-1790.5"/>
<polygon fill="black" stroke="black" points="455.857,-1789.04 449.343,-1780.68 449.224,-1791.28 455.857,-1789.04"/>
</g>
<!-- PracticeRoom -->
<g id="node6" class="node"><title>PracticeRoom</title>
<polygon fill="none" stroke="black" points="741,-1835.5 545,-1835.5 545,-1670.5 741,-1670.5 741,-1835.5"/>
<polygon fill="white" stroke="white" points="552.5,-1674.5 552.5,-1831.5 733.5,-1831.5 733.5,-1674.5 552.5,-1674.5"/>
<polygon fill="black" stroke="black" points="555,-1808 555,-1829 732,-1829 732,-1808 555,-1808"/>
<text text-anchor="start" x="596.5" y="-1815.23" font-family="Times Roman,serif" font-size="14.00" fill="white">PracticeRoom</text>
<text text-anchor="start" x="558" y="-1792.73" font-family="Times Roman,serif" font-size="14.00">Instructions</text>
<text text-anchor="start" x="558" y="-1770.73" font-family="Times Roman,serif" font-size="14.00">PracticeDummy1</text>
<text text-anchor="start" x="558" y="-1748.73" font-family="Times Roman,serif" font-size="14.00">PracticeDummy2</text>
<text text-anchor="start" x="558" y="-1726.73" font-family="Times Roman,serif" font-size="14.00">PracticeDummy3</text>
<text text-anchor="start" x="558" y="-1704.73" font-family="Times Roman,serif" font-size="14.00">PracticeDummy4</text>
<text text-anchor="start" x="558" y="-1682.73" font-family="Times Roman,serif" font-size="14.00">PracticeDummy5</text>
</g>
<!-- SpellCastingAcademy&#45;&gt;PracticeRoom -->
<g id="edge9" class="edge"><title>SpellCastingAcademy&#45;&gt;PracticeRoom</title>
<path fill="none" stroke="black" d="M519.614,-1885.5C530.84,-1873.44 544.718,-1858.54 559.07,-1843.13"/>
<polygon fill="black" stroke="black" points="561.891,-1845.23 566.145,-1835.53 556.768,-1840.46 561.891,-1845.23"/>
</g>
<!-- Box -->
<g id="node44" class="node"><title>Box</title>
<polygon fill="none" stroke="black" points="548,-1622 494,-1622 494,-1586 548,-1586 548,-1622"/>
<text text-anchor="middle" x="521" y="-1600.4" font-family="Times Roman,serif" font-size="14.00">Box</text>
</g>
<!-- PracticeRoom&#45;&gt;Box -->
<g id="edge13" class="edge"><title>PracticeRoom&#45;&gt;Box</title>
<path fill="none" stroke="black" stroke-dasharray="1,5" d="M575.221,-1670.22C563.217,-1655.56 551.567,-1641.33 542.163,-1629.85"/>
<polygon fill="black" stroke="black" points="544.782,-1627.52 535.739,-1622 539.366,-1631.96 544.782,-1627.52"/>
</g>
<!-- Cave -->
<g id="node8" class="node"><title>Cave</title>
<polygon fill="none" stroke="black" points="848,-1773.5 784,-1773.5 784,-1732.5 848,-1732.5 848,-1773.5"/>
<polygon fill="white" stroke="white" points="791.5,-1736.5 791.5,-1769.5 840.5,-1769.5 840.5,-1736.5 791.5,-1736.5"/>
<polygon fill="black" stroke="black" points="794,-1746 794,-1767 839,-1767 839,-1746 794,-1746"/>
<text text-anchor="start" x="799" y="-1753.23" font-family="Times Roman,serif" font-size="14.00" fill="white">Cave</text>
</g>
<!-- EasternMountains&#45;&gt;Cave -->
<g id="edge17" class="edge"><title>EasternMountains&#45;&gt;Cave</title>
<path fill="none" stroke="black" d="M764.461,-1874.27C776.381,-1846.22 792.261,-1808.86 803.229,-1783.05"/>
<polygon fill="black" stroke="black" points="806.483,-1784.34 807.173,-1773.77 800.041,-1781.6 806.483,-1784.34"/>
</g>
<!-- Staircase -->
<g id="node9" class="node"><title>Staircase</title>
<polygon fill="none" stroke="black" points="685,-1631.5 591,-1631.5 591,-1576.5 685,-1576.5 685,-1631.5"/>
<polygon fill="white" stroke="white" points="598.5,-1580.5 598.5,-1627.5 677.5,-1627.5 677.5,-1580.5 598.5,-1580.5"/>
<polygon fill="black" stroke="black" points="601,-1604 601,-1625 676,-1625 676,-1604 601,-1604"/>
<text text-anchor="start" x="606.5" y="-1611.23" font-family="Times Roman,serif" font-size="14.00" fill="white">Staircase</text>
<text text-anchor="start" x="604" y="-1588.73" font-family="Times Roman,serif" font-size="14.00">Sign</text>
</g>
<!-- Cave&#45;&gt;Staircase -->
<g id="edge21" class="edge"><title>Cave&#45;&gt;Staircase</title>
<path fill="none" stroke="black" d="M806.411,-1732.49C797.098,-1714.29 781.522,-1687.88 762,-1670 742.401,-1652.05 717.016,-1637.42 694.323,-1626.54"/>
<polygon fill="black" stroke="black" points="695.662,-1623.3 685.119,-1622.25 692.709,-1629.65 695.662,-1623.3"/>
</g>
<!-- DarkCorridor -->
<g id="node10" class="node"><title>DarkCorridor</title>
<polygon fill="none" stroke="black" points="848,-1624.5 728,-1624.5 728,-1583.5 848,-1583.5 848,-1624.5"/>
<polygon fill="white" stroke="white" points="735.5,-1587.5 735.5,-1620.5 840.5,-1620.5 840.5,-1587.5 735.5,-1587.5"/>
<polygon fill="black" stroke="black" points="738,-1597 738,-1618 839,-1618 839,-1597 738,-1597"/>
<text text-anchor="start" x="743" y="-1604.23" font-family="Times Roman,serif" font-size="14.00" fill="white">DarkCorridor</text>
</g>
<!-- Cave&#45;&gt;DarkCorridor -->
<g id="edge19" class="edge"><title>Cave&#45;&gt;DarkCorridor</title>
<path fill="none" stroke="black" d="M812.107,-1732.28C807.342,-1706.93 799.234,-1663.78 793.751,-1634.6"/>
<polygon fill="black" stroke="black" points="797.147,-1633.72 791.86,-1624.54 790.267,-1635.02 797.147,-1633.72"/>
</g>
<!-- DankRoom -->
<g id="node11" class="node"><title>DankRoom</title>
<polygon fill="none" stroke="black" points="793,-1537.5 669,-1537.5 669,-1482.5 793,-1482.5 793,-1537.5"/>
<polygon fill="white" stroke="white" points="677,-1486.5 677,-1533.5 785,-1533.5 785,-1486.5 677,-1486.5"/>
<polygon fill="black" stroke="black" points="679,-1510 679,-1531 783,-1531 783,-1510 679,-1510"/>
<text text-anchor="start" x="693" y="-1517.23" font-family="Times Roman,serif" font-size="14.00" fill="white">DankRoom</text>
<text text-anchor="start" x="682" y="-1494.73" font-family="Times Roman,serif" font-size="14.00">Boulder</text>
</g>
<!-- DarkCorridor&#45;&gt;DankRoom -->
<g id="edge23" class="edge"><title>DarkCorridor&#45;&gt;DankRoom</title>
<path fill="none" stroke="black" d="M775.35,-1583.14C768.805,-1572.34 760.624,-1558.85 753.077,-1546.41"/>
<polygon fill="black" stroke="black" points="755.904,-1544.32 747.726,-1537.58 749.919,-1547.95 755.904,-1544.32"/>
</g>
<!-- Tunnel -->
<g id="node12" class="node"><title>Tunnel</title>
<polygon fill="none" stroke="black" points="566,-1427.5 486,-1427.5 486,-1372.5 566,-1372.5 566,-1427.5"/>
<polygon fill="white" stroke="white" points="494,-1376.5 494,-1423.5 558,-1423.5 558,-1376.5 494,-1376.5"/>
<polygon fill="black" stroke="black" points="496,-1400 496,-1421 556,-1421 556,-1400 496,-1400"/>
<text text-anchor="start" x="503" y="-1407.23" font-family="Times Roman,serif" font-size="14.00" fill="white">Tunnel</text>
<text text-anchor="start" x="499" y="-1384.73" font-family="Times Roman,serif" font-size="14.00">Rat</text>
</g>
<!-- DankRoom&#45;&gt;Tunnel -->
<g id="edge27" class="edge"><title>DankRoom&#45;&gt;Tunnel</title>
<path fill="none" stroke="black" stroke-dasharray="5,2" d="M668.786,-1504.87C613.714,-1498.88 539.309,-1486.75 521,-1464 515.099,-1456.67 513.636,-1447.21 514.325,-1437.82"/>
<polygon fill="black" stroke="black" points="517.81,-1438.17 515.808,-1427.77 510.885,-1437.15 517.81,-1438.17"/>
<text text-anchor="middle" x="620.5" y="-1451.4" font-family="Times Roman,serif" font-size="14.00">Move Boulder into SmallHole</text>
</g>
<!-- SmallHole -->
<g id="node13" class="node"><title>SmallHole</title>
<polygon fill="none" stroke="black" points="848,-1427.5 610,-1427.5 610,-1372.5 848,-1372.5 848,-1427.5"/>
<polygon fill="white" stroke="white" points="618,-1376.5 618,-1423.5 840,-1423.5 840,-1376.5 618,-1376.5"/>
<polygon fill="black" stroke="black" points="620,-1400 620,-1421 838,-1421 838,-1400 620,-1400"/>
<text text-anchor="start" x="694.5" y="-1407.23" font-family="Times Roman,serif" font-size="14.00" fill="white">SmallHole</text>
<text text-anchor="start" x="623" y="-1384.73" font-family="Times Roman,serif" font-size="14.00">(can move Boulder here)</text>
</g>
<!-- DankRoom&#45;&gt;SmallHole -->
<g id="edge25" class="edge"><title>DankRoom&#45;&gt;SmallHole</title>
<path fill="none" stroke="black" d="M730.495,-1482.24C730.251,-1468.82 729.955,-1452.51 729.69,-1437.96"/>
<polygon fill="black" stroke="black" points="733.186,-1437.68 729.505,-1427.75 726.187,-1437.81 733.186,-1437.68"/>
</g>
<!-- StoneChamber -->
<g id="node14" class="node"><title>StoneChamber</title>
<polygon fill="none" stroke="black" points="592,-1333.5 460,-1333.5 460,-1292.5 592,-1292.5 592,-1333.5"/>
<polygon fill="white" stroke="white" points="467.5,-1296.5 467.5,-1329.5 584.5,-1329.5 584.5,-1296.5 467.5,-1296.5"/>
<polygon fill="black" stroke="black" points="470,-1306 470,-1327 583,-1327 583,-1306 470,-1306"/>
<text text-anchor="start" x="475" y="-1313.23" font-family="Times Roman,serif" font-size="14.00" fill="white">StoneChamber</text>
</g>
<!-- Tunnel&#45;&gt;StoneChamber -->
<g id="edge29" class="edge"><title>Tunnel&#45;&gt;StoneChamber</title>
<path fill="none" stroke="black" d="M526,-1372.47C526,-1363.36 526,-1353.16 526,-1343.81"/>
<polygon fill="black" stroke="black" points="529.5,-1343.73 526,-1333.73 522.5,-1343.73 529.5,-1343.73"/>
</g>
<!-- Portal -->
<g id="node15" class="node"><title>Portal</title>
<polygon fill="none" stroke="black" points="561,-1253.5 491,-1253.5 491,-1212.5 561,-1212.5 561,-1253.5"/>
<polygon fill="white" stroke="white" points="498.5,-1216.5 498.5,-1249.5 553.5,-1249.5 553.5,-1216.5 498.5,-1216.5"/>
<polygon fill="black" stroke="black" points="501,-1226 501,-1247 552,-1247 552,-1226 501,-1226"/>
<text text-anchor="start" x="506" y="-1233.23" font-family="Times Roman,serif" font-size="14.00" fill="white">Portal</text>
</g>
<!-- StoneChamber&#45;&gt;Portal -->
<g id="edge31" class="edge"><title>StoneChamber&#45;&gt;Portal</title>
<path fill="none" stroke="black" d="M526,-1292.4C526,-1283.63 526,-1273.21 526,-1263.57"/>
<polygon fill="black" stroke="black" points="529.5,-1263.53 526,-1253.53 522.5,-1263.53 529.5,-1263.53"/>
</g>
<!-- TownSquare -->
<g id="node16" class="node"><title>TownSquare</title>
<polygon fill="none" stroke="black" points="621,-1149.5 431,-1149.5 431,-1050.5 621,-1050.5 621,-1149.5"/>
<polygon fill="white" stroke="white" points="439,-1054.5 439,-1145.5 613,-1145.5 613,-1054.5 439,-1054.5"/>
<polygon fill="black" stroke="black" points="441,-1122 441,-1143 611,-1143 611,-1122 441,-1122"/>
<text text-anchor="start" x="483" y="-1129.23" font-family="Times Roman,serif" font-size="14.00" fill="white">TownSquare</text>
<text text-anchor="start" x="444" y="-1106.73" font-family="Times Roman,serif" font-size="14.00">RandomCitizen1</text>
<text text-anchor="start" x="444" y="-1084.73" font-family="Times Roman,serif" font-size="14.00">RandomCitizen2</text>
<text text-anchor="start" x="444" y="-1062.73" font-family="Times Roman,serif" font-size="14.00">DistraughtLady</text>
</g>
<!-- Portal&#45;&gt;TownSquare -->
<g id="edge34" class="edge"><title>Portal&#45;&gt;TownSquare</title>
<path fill="none" stroke="black" d="M526,-1212.22C526,-1198.04 526,-1178.48 526,-1159.66"/>
<polygon fill="black" stroke="black" points="529.5,-1159.62 526,-1149.62 522.5,-1159.62 529.5,-1159.62"/>
</g>
<!-- Marketplace -->
<g id="node17" class="node"><title>Marketplace</title>
<polygon fill="none" stroke="black" points="162,-989.5 16,-989.5 16,-890.5 162,-890.5 162,-989.5"/>
<polygon fill="white" stroke="white" points="23.5,-894.5 23.5,-985.5 154.5,-985.5 154.5,-894.5 23.5,-894.5"/>
<polygon fill="black" stroke="black" points="26,-962 26,-983 153,-983 153,-962 26,-962"/>
<text text-anchor="start" x="47.5" y="-969.233" font-family="Times Roman,serif" font-size="14.00" fill="white">Marketplace</text>
<text text-anchor="start" x="29" y="-946.733" font-family="Times Roman,serif" font-size="14.00">Vendor</text>
<text text-anchor="start" x="29" y="-924.733" font-family="Times Roman,serif" font-size="14.00">rmSpell</text>
<text text-anchor="start" x="29" y="-902.733" font-family="Times Roman,serif" font-size="14.00">mkdirSpell</text>
</g>
<!-- TownSquare&#45;&gt;Marketplace -->
<g id="edge36" class="edge"><title>TownSquare&#45;&gt;Marketplace</title>
<path fill="none" stroke="black" d="M430.726,-1086.16C359.828,-1073.38 262.069,-1050.43 183,-1012 173.374,-1007.32 163.776,-1001.57 154.592,-995.371"/>
<polygon fill="black" stroke="black" points="156.489,-992.427 146.285,-989.573 152.482,-998.167 156.489,-992.427"/>
</g>
<!-- Library -->
<g id="node18" class="node"><title>Library</title>
<polygon fill="none" stroke="black" points="403,-1011.5 205,-1011.5 205,-868.5 403,-868.5 403,-1011.5"/>
<polygon fill="white" stroke="white" points="212.5,-872.5 212.5,-1007.5 395.5,-1007.5 395.5,-872.5 212.5,-872.5"/>
<polygon fill="black" stroke="black" points="215,-984 215,-1005 394,-1005 394,-984 215,-984"/>
<text text-anchor="start" x="280" y="-991.233" font-family="Times Roman,serif" font-size="14.00" fill="white">Library</text>
<text text-anchor="start" x="218" y="-968.733" font-family="Times Roman,serif" font-size="14.00">HistoryOfTerminus</text>
<text text-anchor="start" x="218" y="-946.733" font-family="Times Roman,serif" font-size="14.00">NostalgiaForHome</text>
<text text-anchor="start" x="218" y="-924.733" font-family="Times Roman,serif" font-size="14.00">TotallyRadSpellbook</text>
<text text-anchor="start" x="218" y="-902.733" font-family="Times Roman,serif" font-size="14.00">PaperbackRomance</text>
<text text-anchor="start" x="218" y="-880.733" font-family="Times Roman,serif" font-size="14.00">InconscpicuousLever</text>
</g>
<!-- TownSquare&#45;&gt;Library -->
<g id="edge38" class="edge"><title>TownSquare&#45;&gt;Library</title>
<path fill="none" stroke="black" d="M457.278,-1050.47C442.747,-1040 427.08,-1028.71 411.504,-1017.48"/>
<polygon fill="black" stroke="black" points="413.533,-1014.63 403.374,-1011.62 409.44,-1020.31 413.533,-1014.63"/>
</g>
<!-- RockyPath -->
<g id="node19" class="node"><title>RockyPath</title>
<polygon fill="none" stroke="black" points="606,-967.5 446,-967.5 446,-912.5 606,-912.5 606,-967.5"/>
<polygon fill="white" stroke="white" points="453.5,-916.5 453.5,-963.5 598.5,-963.5 598.5,-916.5 453.5,-916.5"/>
<polygon fill="black" stroke="black" points="456,-940 456,-961 597,-961 597,-940 456,-940"/>
<text text-anchor="start" x="490.5" y="-947.233" font-family="Times Roman,serif" font-size="14.00" fill="white">RockyPath</text>
<text text-anchor="start" x="459" y="-924.733" font-family="Times Roman,serif" font-size="14.00">LargeBoulder</text>
</g>
<!-- TownSquare&#45;&gt;RockyPath -->
<g id="edge40" class="edge"><title>TownSquare&#45;&gt;RockyPath</title>
<path fill="none" stroke="black" d="M526,-1050.25C526,-1026.92 526,-999.555 526,-977.927"/>
<polygon fill="black" stroke="black" points="529.5,-977.813 526,-967.813 522.5,-977.813 529.5,-977.813"/>
</g>
<!-- ArtisanShop -->
<g id="node21" class="node"><title>ArtisanShop</title>
<polygon fill="none" stroke="black" points="847,-1000.5 649,-1000.5 649,-879.5 847,-879.5 847,-1000.5"/>
<polygon fill="white" stroke="white" points="656.5,-883.5 656.5,-996.5 839.5,-996.5 839.5,-883.5 656.5,-883.5"/>
<polygon fill="black" stroke="black" points="659,-973 659,-994 838,-994 838,-973 659,-973"/>
<text text-anchor="start" x="706" y="-980.233" font-family="Times Roman,serif" font-size="14.00" fill="white">ArtisanShop</text>
<text text-anchor="start" x="662" y="-957.733" font-family="Times Roman,serif" font-size="14.00">StrangeTrinket</text>
<text text-anchor="start" x="662" y="-935.733" font-family="Times Roman,serif" font-size="14.00">ClockworkDragon</text>
<text text-anchor="start" x="662" y="-913.733" font-family="Times Roman,serif" font-size="14.00">Artisan</text>
<text text-anchor="start" x="662" y="-891.733" font-family="Times Roman,serif" font-size="14.00">(user adds Gears)</text>
</g>
<!-- TownSquare&#45;&gt;ArtisanShop -->
<g id="edge42" class="edge"><title>TownSquare&#45;&gt;ArtisanShop</title>
<path fill="none" stroke="black" d="M594.722,-1050.47C613.972,-1036.6 635.218,-1021.28 655.601,-1006.59"/>
<polygon fill="black" stroke="black" points="657.904,-1009.25 663.97,-1000.56 653.811,-1003.57 657.904,-1009.25"/>
</g>
<!-- BrokenBridge -->
<g id="node22" class="node"><title>BrokenBridge</title>
<polygon fill="none" stroke="black" points="1150,-967.5 890,-967.5 890,-912.5 1150,-912.5 1150,-967.5"/>
<polygon fill="white" stroke="white" points="898,-916.5 898,-963.5 1142,-963.5 1142,-916.5 898,-916.5"/>
<polygon fill="black" stroke="black" points="900,-940 900,-961 1140,-961 1140,-940 900,-940"/>
<text text-anchor="start" x="973" y="-947.233" font-family="Times Roman,serif" font-size="14.00" fill="white">BrokenBridge</text>
<text text-anchor="start" x="903" y="-924.733" font-family="Times Roman,serif" font-size="14.00">(player will touch a Plank)</text>
</g>
<!-- TownSquare&#45;&gt;BrokenBridge -->
<g id="edge44" class="edge"><title>TownSquare&#45;&gt;BrokenBridge</title>
<path fill="none" stroke="black" d="M621.089,-1080.65C690.539,-1065.28 786.422,-1041.51 868,-1012 898.837,-1000.84 931.87,-985.62 959.239,-972.044"/>
<polygon fill="black" stroke="black" points="960.917,-975.118 968.292,-967.511 957.783,-968.859 960.917,-975.118"/>
</g>
<!-- BackRoom -->
<g id="node20" class="node"><title>BackRoom</title>
<polygon fill="none" stroke="black" points="383,-813.5 225,-813.5 225,-714.5 383,-714.5 383,-813.5"/>
<polygon fill="white" stroke="white" points="233,-718.5 233,-809.5 375,-809.5 375,-718.5 233,-718.5"/>
<polygon fill="black" stroke="black" points="235,-786 235,-807 373,-807 373,-786 235,-786"/>
<text text-anchor="start" x="268" y="-793.233" font-family="Times Roman,serif" font-size="14.00" fill="white">BackRoom</text>
<text text-anchor="start" x="238" y="-770.733" font-family="Times Roman,serif" font-size="14.00">Grep</text>
<text text-anchor="start" x="238" y="-748.733" font-family="Times Roman,serif" font-size="14.00">Librarian</text>
<text text-anchor="start" x="238" y="-726.733" font-family="Times Roman,serif" font-size="14.00">PracticeBook</text>
</g>
<!-- Library&#45;&gt;BackRoom -->
<g id="edge60" class="edge"><title>Library&#45;&gt;BackRoom</title>
<path fill="none" stroke="black" stroke-dasharray="5,2" d="M304,-868.414C304,-853.634 304,-838.213 304,-823.901"/>
<polygon fill="black" stroke="black" points="307.5,-823.699 304,-813.699 300.5,-823.7 307.5,-823.699"/>
<text text-anchor="middle" x="371" y="-837.4" font-family="Times Roman,serif" font-size="14.00">Must less the lever.</text>
</g>
<!-- Farm -->
<g id="node23" class="node"><title>Farm</title>
<polygon fill="none" stroke="black" points="587,-802.5 465,-802.5 465,-725.5 587,-725.5 587,-802.5"/>
<polygon fill="white" stroke="white" points="473,-729.5 473,-798.5 579,-798.5 579,-729.5 473,-729.5"/>
<polygon fill="black" stroke="black" points="475,-775 475,-796 577,-796 577,-775 475,-775"/>
<text text-anchor="start" x="509" y="-782.233" font-family="Times Roman,serif" font-size="14.00" fill="white">Farm</text>
<text text-anchor="start" x="478" y="-759.733" font-family="Times Roman,serif" font-size="14.00">EarOfCorn</text>
<text text-anchor="start" x="478" y="-737.733" font-family="Times Roman,serif" font-size="14.00">Farmer</text>
</g>
<!-- RockyPath&#45;&gt;Farm -->
<g id="edge46" class="edge"><title>RockyPath&#45;&gt;Farm</title>
<path fill="none" stroke="black" stroke-dasharray="5,2" d="M526,-912.5C526,-885.892 526,-844.982 526,-812.834"/>
<polygon fill="black" stroke="black" points="529.5,-812.733 526,-802.733 522.5,-812.733 529.5,-812.733"/>
<text text-anchor="middle" x="656.5" y="-837.4" font-family="Times Roman,serif" font-size="14.00">Remove LargeBoulder to reveal Farm.</text>
</g>
<!-- Clearing -->
<g id="node24" class="node"><title>Clearing</title>
<polygon fill="none" stroke="black" points="1038,-791.5 902,-791.5 902,-736.5 1038,-736.5 1038,-791.5"/>
<polygon fill="white" stroke="white" points="910,-740.5 910,-787.5 1030,-787.5 1030,-740.5 910,-740.5"/>
<polygon fill="black" stroke="black" points="912,-764 912,-785 1028,-785 1028,-764 912,-764"/>
<text text-anchor="start" x="941" y="-771.233" font-family="Times Roman,serif" font-size="14.00" fill="white">Clearing</text>
<text text-anchor="start" x="915" y="-748.733" font-family="Times Roman,serif" font-size="14.00">CryingMan</text>
</g>
<!-- BrokenBridge&#45;&gt;Clearing -->
<g id="edge48" class="edge"><title>BrokenBridge&#45;&gt;Clearing</title>
<path fill="none" stroke="black" stroke-dasharray="5,2" d="M1012.19,-912.5C1003.7,-882.623 990.089,-834.713 980.631,-801.423"/>
<polygon fill="black" stroke="black" points="983.94,-800.26 977.84,-791.597 977.206,-802.173 983.94,-800.26"/>
<text text-anchor="middle" x="1044" y="-837.4" font-family="Times Roman,serif" font-size="14.00">Touch a Plank.</text>
</g>
<!-- House -->
<g id="node25" class="node"><title>House</title>
<polygon fill="none" stroke="black" points="795,-652.5 723,-652.5 723,-611.5 795,-611.5 795,-652.5"/>
<polygon fill="white" stroke="white" points="730.5,-615.5 730.5,-648.5 787.5,-648.5 787.5,-615.5 730.5,-615.5"/>
<polygon fill="black" stroke="black" points="733,-625 733,-646 786,-646 786,-625 733,-625"/>
<text text-anchor="start" x="738" y="-632.233" font-family="Times Roman,serif" font-size="14.00" fill="white">House</text>
</g>
<!-- Clearing&#45;&gt;House -->
<g id="edge52" class="edge"><title>Clearing&#45;&gt;House</title>
<path fill="none" stroke="black" stroke-dasharray="5,2" d="M901.927,-751.171C865.16,-741.313 821.07,-724.396 790,-696 780.104,-686.955 773.025,-674.068 768.154,-662.225"/>
<polygon fill="black" stroke="black" points="771.348,-660.773 764.569,-652.63 764.791,-663.223 771.348,-660.773"/>
<text text-anchor="middle" x="871.5" y="-683.4" font-family="Times Roman,serif" font-size="14.00">Player mkdir the House</text>
</g>
<!-- OminousLookingPath -->
<g id="node26" class="node"><title>OminousLookingPath</title>
<polygon fill="none" stroke="black" points="1069,-659.5 849,-659.5 849,-604.5 1069,-604.5 1069,-659.5"/>
<polygon fill="white" stroke="white" points="857,-608.5 857,-655.5 1061,-655.5 1061,-608.5 857,-608.5"/>
<polygon fill="black" stroke="black" points="859,-632 859,-653 1059,-653 1059,-632 859,-632"/>
<text text-anchor="start" x="885.5" y="-639.233" font-family="Times Roman,serif" font-size="14.00" fill="white">OminousLookingPath</text>
<text text-anchor="start" x="862" y="-616.733" font-family="Times Roman,serif" font-size="14.00">ThornyBrambles</text>
</g>
<!-- Clearing&#45;&gt;OminousLookingPath -->
<g id="edge50" class="edge"><title>Clearing&#45;&gt;OminousLookingPath</title>
<path fill="none" stroke="black" stroke-dasharray="5,2" d="M967.694,-736.328C966.081,-716.968 963.906,-690.874 962.135,-669.626"/>
<polygon fill="black" stroke="black" points="965.621,-669.31 961.303,-659.635 958.646,-669.891 965.621,-669.31"/>
<text text-anchor="middle" x="1047.5" y="-683.4" font-family="Times Roman,serif" font-size="14.00">rm the ThornyBrambles</text>
</g>
<!-- CaveOfDisgruntledTrolls -->
<g id="node27" class="node"><title>CaveOfDisgruntledTrolls</title>
<polygon fill="none" stroke="black" points="1060,-565.5 790,-565.5 790,-466.5 1060,-466.5 1060,-565.5"/>
<polygon fill="white" stroke="white" points="797.5,-470.5 797.5,-561.5 1052.5,-561.5 1052.5,-470.5 797.5,-470.5"/>
<polygon fill="black" stroke="black" points="800,-538 800,-559 1051,-559 1051,-538 800,-538"/>
<text text-anchor="start" x="842.5" y="-545.233" font-family="Times Roman,serif" font-size="14.00" fill="white">CaveOfDisgruntledTrolls</text>
<text text-anchor="start" x="803" y="-522.733" font-family="Times Roman,serif" font-size="14.00">UglyTroll</text>
<text text-anchor="start" x="803" y="-500.733" font-family="Times Roman,serif" font-size="14.00">UglierTroll</text>
<text text-anchor="start" x="803" y="-478.733" font-family="Times Roman,serif" font-size="14.00">AbsolutelyHideousTroll</text>
</g>
<!-- OminousLookingPath&#45;&gt;CaveOfDisgruntledTrolls -->
<g id="edge54" class="edge"><title>OminousLookingPath&#45;&gt;CaveOfDisgruntledTrolls</title>
<path fill="none" stroke="black" d="M950.856,-604.215C948.295,-595.479 945.363,-585.473 942.414,-575.411"/>
<polygon fill="black" stroke="black" points="945.764,-574.398 939.592,-565.786 939.047,-576.367 945.764,-574.398"/>
</g>
<!-- Slide -->
<g id="node33" class="node"><title>Slide</title>
<polygon fill="none" stroke="black" points="942,-411.5 880,-411.5 880,-370.5 942,-370.5 942,-411.5"/>
<polygon fill="white" stroke="white" points="887.5,-374.5 887.5,-407.5 934.5,-407.5 934.5,-374.5 887.5,-374.5"/>
<polygon fill="black" stroke="black" points="890,-384 890,-405 933,-405 933,-384 890,-384"/>
<text text-anchor="start" x="894.5" y="-391.233" font-family="Times Roman,serif" font-size="14.00" fill="white">Slide</text>
</g>
<!-- CaveOfDisgruntledTrolls&#45;&gt;Slide -->
<g id="edge58" class="edge"><title>CaveOfDisgruntledTrolls&#45;&gt;Slide</title>
<path fill="none" stroke="black" stroke-dasharray="5,2" d="M919.427,-466.238C917.742,-451.195 915.942,-435.125 914.44,-421.715"/>
<polygon fill="black" stroke="black" points="917.899,-421.15 913.307,-411.602 910.942,-421.929 917.899,-421.15"/>
<text text-anchor="middle" x="1037.5" y="-435.4" font-family="Times Roman,serif" font-size="14.00">After either rm or mv the UglyTroll</text>
</g>
<!-- StataCenter -->
<g id="node29" class="node"><title>StataCenter</title>
<polygon fill="none" stroke="black" points="1159,-1951.5 891,-1951.5 891,-1874.5 1159,-1874.5 1159,-1951.5"/>
<polygon fill="white" stroke="white" points="898.5,-1878.5 898.5,-1947.5 1151.5,-1947.5 1151.5,-1878.5 898.5,-1878.5"/>
<polygon fill="black" stroke="black" points="901,-1924 901,-1945 1150,-1945 1150,-1924 901,-1924"/>
<text text-anchor="start" x="983" y="-1931.23" font-family="Times Roman,serif" font-size="14.00" fill="white">StataCenter</text>
<text text-anchor="start" x="904" y="-1908.73" font-family="Times Roman,serif" font-size="14.00">WaryEyeOfTheGradStudent</text>
<text text-anchor="start" x="904" y="-1886.73" font-family="Times Roman,serif" font-size="14.00">HelpfulTA</text>
</g>
<!-- MIT&#45;&gt;StataCenter -->
<g id="edge69" class="edge"><title>MIT&#45;&gt;StataCenter</title>
<path fill="none" stroke="black" d="M1068.47,-2017.33C1061.68,-2001.03 1052.9,-1979.96 1045.01,-1961.03"/>
<polygon fill="black" stroke="black" points="1048.18,-1959.53 1041.1,-1951.65 1041.72,-1962.23 1048.18,-1959.53"/>
</g>
<!-- AthenaCluster -->
<g id="node30" class="node"><title>AthenaCluster</title>
<polygon fill="none" stroke="black" points="1368,-1940.5 1202,-1940.5 1202,-1885.5 1368,-1885.5 1368,-1940.5"/>
<polygon fill="white" stroke="white" points="1209.5,-1889.5 1209.5,-1936.5 1360.5,-1936.5 1360.5,-1889.5 1209.5,-1889.5"/>
<polygon fill="black" stroke="black" points="1212,-1913 1212,-1934 1359,-1934 1359,-1913 1212,-1913"/>
<text text-anchor="start" x="1235.5" y="-1920.23" font-family="Times Roman,serif" font-size="14.00" fill="white">AthenaCluster</text>
<text text-anchor="start" x="1215" y="-1897.73" font-family="Times Roman,serif" font-size="14.00">Workstation</text>
</g>
<!-- MIT&#45;&gt;AthenaCluster -->
<g id="edge71" class="edge"><title>MIT&#45;&gt;AthenaCluster</title>
<path fill="none" stroke="black" stroke-dasharray="5,2" d="M1096.87,-2017.36C1107.59,-2001.71 1122.69,-1982.76 1140,-1970 1143.08,-1967.73 1171.83,-1956.3 1202.92,-1944.27"/>
<polygon fill="black" stroke="black" points="1204.55,-1947.4 1212.62,-1940.53 1202.03,-1940.87 1204.55,-1947.4"/>
<text text-anchor="middle" x="1279.5" y="-1975.4" font-family="Times Roman,serif" font-size="14.00">Can only enter with the right password.</text>
</g>
<!-- ISnT -->
<g id="node31" class="node"><title>ISnT</title>
<polygon fill="none" stroke="black" points="1471,-1933.5 1411,-1933.5 1411,-1892.5 1471,-1892.5 1471,-1933.5"/>
<polygon fill="white" stroke="white" points="1418.5,-1896.5 1418.5,-1929.5 1463.5,-1929.5 1463.5,-1896.5 1418.5,-1896.5"/>
<polygon fill="black" stroke="black" points="1421,-1906 1421,-1927 1462,-1927 1462,-1906 1421,-1906"/>
<text text-anchor="start" x="1425.5" y="-1913.23" font-family="Times Roman,serif" font-size="14.00" fill="white">ISnT</text>
</g>
<!-- MIT&#45;&gt;ISnT -->
<g id="edge73" class="edge"><title>MIT&#45;&gt;ISnT</title>
<path fill="none" stroke="black" d="M1133.07,-2017.41C1143.73,-2012.88 1155.03,-2008.77 1166,-2006 1193.97,-1998.93 1403.22,-2006.91 1425,-1988 1437.42,-1977.22 1441.58,-1959.39 1442.56,-1943.81"/>
<polygon fill="black" stroke="black" points="1446.06,-1943.58 1442.79,-1933.51 1439.06,-1943.43 1446.06,-1943.58"/>
</g>
<!-- KernelFiles -->
<g id="node35" class="node"><title>KernelFiles</title>
<polygon fill="none" stroke="black" points="986,-331.5 836,-331.5 836,-254.5 986,-254.5 986,-331.5"/>
<polygon fill="white" stroke="white" points="843.5,-258.5 843.5,-327.5 978.5,-327.5 978.5,-258.5 843.5,-258.5"/>
<polygon fill="black" stroke="black" points="846,-304 846,-325 977,-325 977,-304 846,-304"/>
<text text-anchor="start" x="874.5" y="-311.233" font-family="Times Roman,serif" font-size="14.00" fill="white">KernelFiles</text>
<text text-anchor="start" x="849" y="-288.733" font-family="Times Roman,serif" font-size="14.00">Certificate</text>
<text text-anchor="start" x="849" y="-266.733" font-family="Times Roman,serif" font-size="14.00">Instructions</text>
</g>
<!-- Slide&#45;&gt;KernelFiles -->
<g id="edge56" class="edge"><title>Slide&#45;&gt;KernelFiles</title>
<path fill="none" stroke="black" d="M911,-370.217C911,-361.789 911,-351.672 911,-341.578"/>
<polygon fill="black" stroke="black" points="914.5,-341.556 911,-331.556 907.5,-341.556 914.5,-341.556"/>
</g>
<!-- Paradise -->
<g id="node34" class="node"><title>Paradise</title>
<polygon fill="none" stroke="black" points="785,-192.5 699,-192.5 699,-151.5 785,-151.5 785,-192.5"/>
<polygon fill="white" stroke="white" points="706.5,-155.5 706.5,-188.5 777.5,-188.5 777.5,-155.5 706.5,-155.5"/>
<polygon fill="black" stroke="black" points="709,-165 709,-186 776,-186 776,-165 709,-165"/>
<text text-anchor="start" x="713.5" y="-172.233" font-family="Times Roman,serif" font-size="14.00" fill="white">Paradise</text>
</g>
<!-- KernelFiles&#45;&gt;Paradise -->
<g id="edge62" class="edge"><title>KernelFiles&#45;&gt;Paradise</title>
<path fill="none" stroke="black" stroke-dasharray="5,2" d="M835.539,-278.126C792.911,-268.024 745.673,-253.365 733,-236 725.991,-226.396 726.326,-213.778 729.127,-202.286"/>
<polygon fill="black" stroke="black" points="732.517,-203.168 732.1,-192.581 725.824,-201.118 732.517,-203.168"/>
<text text-anchor="middle" x="852.5" y="-223.4" font-family="Times Roman,serif" font-size="14.00">sudo su with the correct password</text>
</g>
<!-- MoreKernelFiles -->
<g id="node36" class="node"><title>MoreKernelFiles</title>
<polygon fill="none" stroke="black" points="1073,-199.5 901,-199.5 901,-144.5 1073,-144.5 1073,-199.5"/>
<polygon fill="white" stroke="white" points="909,-148.5 909,-195.5 1065,-195.5 1065,-148.5 909,-148.5"/>
<polygon fill="black" stroke="black" points="911,-172 911,-193 1063,-193 1063,-172 911,-172"/>
<text text-anchor="start" x="932.5" y="-179.233" font-family="Times Roman,serif" font-size="14.00" fill="white">MoreKernelFiles</text>
<text text-anchor="start" x="914" y="-156.733" font-family="Times Roman,serif" font-size="14.00">(lots of files)</text>
</g>
<!-- KernelFiles&#45;&gt;MoreKernelFiles -->
<g id="edge64" class="edge"><title>KernelFiles&#45;&gt;MoreKernelFiles</title>
<path fill="none" stroke="black" d="M968.758,-254.193C973.939,-248.647 978.529,-242.569 982,-236 986.154,-228.139 988.205,-218.961 989.06,-210.052"/>
<polygon fill="black" stroke="black" points="992.568,-209.972 989.568,-199.811 985.576,-209.625 992.568,-209.972"/>
</g>
</g>
</svg>
