<?xml version="1.0" encoding="UTF-8" standalone="no"?>
<!DOCTYPE svg PUBLIC "-//W3C//DTD SVG 1.1//EN"
 "http://www.w3.org/Graphics/SVG/1.1/DTD/svg11.dtd">
<!-- Generated by graphviz version 2.26.3 (20100126.1600)
 -->
<!-- Title: G Pages: 1 -->
<svg width="222pt" height="374pt"
 viewBox="0.00 0.00 222.00 374.00" xmlns="http://www.w3.org/2000/svg" xmlns:xlink="http://www.w3.org/1999/xlink">
<g id="graph1" class="graph" transform="scale(1 1) rotate(0) translate(4 370)">
<title>G</title>
<polygon fill="white" stroke="white" points="-4,5 -4,-370 219,-370 219,5 -4,5"/>
<g id="graph2" class="cluster"><title>cluster0</title>
<polygon fill="none" stroke="black" points="64,-156 64,-358 206,-358 206,-156 64,-156"/>
</g>
<g id="graph3" class="cluster"><title>cluster1</title>
<polygon fill="none" stroke="black" points="64,-8 64,-136 206,-136 206,-8 64,-8"/>
</g>
<!-- a -->
<g id="node2" class="node"><title>a</title>
<ellipse fill="none" stroke="black" cx="135" cy="-331" rx="27" ry="18.3848"/>
<text text-anchor="middle" x="135" y="-327.4" font-family="Times Roman,serif" font-size="14.00">a</text>
</g>
<!-- b -->
<g id="node4" class="node"><title>b</title>
<ellipse fill="none" stroke="black" cx="99" cy="-257" rx="27" ry="18.3848"/>
<text text-anchor="middle" x="99" y="-253.4" font-family="Times Roman,serif" font-size="14.00">b</text>
</g>
<!-- a&#45;&gt;b -->
<g id="edge3" class="edge"><title>a&#45;&gt;b</title>
<path fill="none" stroke="black" d="M126.285,-313.087C122.04,-304.361 116.846,-293.684 112.134,-283.997"/>
<polygon fill="black" stroke="black" points="115.156,-282.21 107.634,-274.748 108.862,-285.272 115.156,-282.21"/>
</g>
<!-- c -->
<g id="node6" class="node"><title>c</title>
<ellipse fill="none" stroke="black" cx="171" cy="-257" rx="27" ry="18.3848"/>
<text text-anchor="middle" x="171" y="-253.4" font-family="Times Roman,serif" font-size="14.00">c</text>
</g>
<!-- a&#45;&gt;c -->
<g id="edge5" class="edge"><title>a&#45;&gt;c</title>
<path fill="none" stroke="black" d="M143.715,-313.087C147.96,-304.361 153.154,-293.684 157.866,-283.997"/>
<polygon fill="black" stroke="black" points="161.138,-285.272 162.366,-274.748 154.844,-282.21 161.138,-285.272"/>
</g>
<!-- d -->
<g id="node8" class="node"><title>d</title>
<ellipse fill="none" stroke="black" cx="99" cy="-183" rx="27" ry="18.3848"/>
<text text-anchor="middle" x="99" y="-179.4" font-family="Times Roman,serif" font-size="14.00">d</text>
</g>
<!-- b&#45;&gt;d -->
<g id="edge7" class="edge"><title>b&#45;&gt;d</title>
<path fill="none" stroke="black" d="M99,-238.327C99,-230.264 99,-220.648 99,-211.711"/>
<polygon fill="black" stroke="black" points="102.5,-211.667 99,-201.667 95.5001,-211.667 102.5,-211.667"/>
</g>
<!-- f -->
<g id="node15" class="node"><title>f</title>
<ellipse fill="none" stroke="black" cx="99" cy="-35" rx="27" ry="18.3848"/>
<text text-anchor="middle" x="99" y="-31.4" font-family="Times Roman,serif" font-size="14.00">f</text>
</g>
<!-- b&#45;&gt;f -->
<g id="edge16" class="edge"><title>b&#45;&gt;f</title>
<path fill="none" stroke="black" d="M113.127,-240.95C121.259,-230.608 130.696,-216.436 135,-202 142.132,-178.082 145.688,-161.984 145.668,-145.865"/>
<polygon fill="black" stroke="black" points="149.158,-145.58 145.193,-135.755 142.166,-145.908 149.158,-145.58"/>
</g>
<!-- c&#45;&gt;d -->
<g id="edge9" class="edge"><title>c&#45;&gt;d</title>
<path fill="none" stroke="black" d="M155.731,-241.307C145.64,-230.935 132.253,-217.176 121.017,-205.628"/>
<polygon fill="black" stroke="black" points="123.483,-203.144 114,-198.417 118.465,-208.025 123.483,-203.144"/>
</g>
<!-- e -->
<g id="node11" class="node"><title>e</title>
<ellipse fill="none" stroke="black" cx="99" cy="-109" rx="27" ry="18.3848"/>
<text text-anchor="middle" x="99" y="-105.4" font-family="Times Roman,serif" font-size="14.00">e</text>
</g>
<!-- c&#45;&gt;e -->
<g id="edge22" class="edge"><title>c&#45;&gt;e</title>
<path fill="none" stroke="black" d="M135,-156C130.695,-148.082 125.115,-140.074 119.639,-132.967"/>
<polygon fill="black" stroke="black" points="122.322,-130.717 113.341,-125.096 116.856,-135.091 122.322,-130.717"/>
</g>
<!-- g -->
<g id="node13" class="node"><title>g</title>
<ellipse fill="none" stroke="black" cx="171" cy="-35" rx="27" ry="18.3848"/>
<text text-anchor="middle" x="171" y="-31.4" font-family="Times Roman,serif" font-size="14.00">g</text>
</g>
<!-- c&#45;&gt;g -->
<g id="edge20" class="edge"><title>c&#45;&gt;g</title>
<path fill="none" stroke="black" d="M171,-156.393C171,-152.911 171,-149.415 171,-145.919"/>
<polygon fill="black" stroke="black" points="174.5,-145.834 171,-135.834 167.5,-145.834 174.5,-145.834"/>
</g>
<!-- d&#45;&gt;e -->
<g id="edge18" class="edge"><title>d&#45;&gt;e</title>
<path fill="none" stroke="black" d="M99,-164.327C99,-156.264 99,-146.648 99,-137.711"/>
<polygon fill="black" stroke="black" points="102.5,-137.667 99,-127.667 95.5001,-137.667 102.5,-137.667"/>
</g>
<!-- h -->
<g id="node21" class="node"><title>h</title>
<ellipse fill="none" stroke="black" cx="27" cy="-109" rx="27" ry="18.3848"/>
<text text-anchor="middle" x="27" y="-105.4" font-family="Times Roman,serif" font-size="14.00">h</text>
</g>
<!-- d&#45;&gt;h -->
<g id="edge24" class="edge"><title>d&#45;&gt;h</title>
<path fill="none" stroke="black" d="M83.7307,-167.307C73.6398,-156.935 60.2526,-143.176 49.0169,-131.628"/>
<polygon fill="black" stroke="black" points="51.4826,-129.144 42.0004,-124.417 46.4655,-134.025 51.4826,-129.144"/>
</g>
<!-- e&#45;&gt;g -->
<g id="edge12" class="edge"><title>e&#45;&gt;g</title>
<path fill="none" stroke="black" d="M114.269,-93.3065C124.36,-82.9354 137.747,-69.1763 148.983,-57.6285"/>
<polygon fill="black" stroke="black" points="151.535,-60.0252 156,-50.4171 146.517,-55.1437 151.535,-60.0252"/>
</g>
<!-- e&#45;&gt;f -->
<g id="edge14" class="edge"><title>e&#45;&gt;f</title>
<path fill="none" stroke="black" d="M99,-90.3267C99,-82.2639 99,-72.6477 99,-63.7115"/>
<polygon fill="black" stroke="black" points="102.5,-63.6673 99,-53.6674 95.5001,-63.6674 102.5,-63.6673"/>
</g>
</g>
</svg>
